<svg width="32" height="32" viewBox="0 0 32 32" fill="none" xmlns="http://www.w3.org/2000/svg">
<path d="M20 30.3334H12C4.76 30.3334 1.66667 27.2401 1.66667 20.0001V12.0001C1.66667 4.76008 4.76 1.66675 12 1.66675H18.6667C19.2133 1.66675 19.6667 2.12008 19.6667 2.66675C19.6667 3.21341 19.2133 3.66675 18.6667 3.66675H12C5.85333 3.66675 3.66667 5.85341 3.66667 12.0001V20.0001C3.66667 26.1467 5.85333 28.3334 12 28.3334H20C26.1467 28.3334 28.3333 26.1467 28.3333 20.0001V13.3334C28.3333 12.7867 28.7867 12.3334 29.3333 12.3334C29.88 12.3334 30.3333 12.7867 30.3333 13.3334V20.0001C30.3333 27.2401 27.24 30.3334 20 30.3334Z" fill="#C183FF"/>
<path d="M29.3333 14.3307H24C19.44 14.3307 17.6667 12.5574 17.6667 7.99738V2.66405C17.6667 2.26405 17.9067 1.89071 18.28 1.74405C18.6533 1.58405 19.08 1.67738 19.3733 1.95738L30.04 12.624C30.179 12.7641 30.2736 12.9422 30.3117 13.1359C30.3499 13.3295 30.3299 13.5301 30.2544 13.7125C30.1789 13.8948 30.0512 14.0508 29.8873 14.1608C29.7234 14.2708 29.5307 14.3299 29.3333 14.3307ZM19.6667 5.07738V7.99738C19.6667 11.4374 20.56 12.3307 24 12.3307H26.92L19.6667 5.07738Z" fill="#C183FF"/>
</svg>
