<svg width="32" height="32" viewBox="0 0 32 32" fill="none" xmlns="http://www.w3.org/2000/svg">
<path d="M16 25C15.4533 25 15 24.5467 15 24V20C15 19.4533 15.4533 19 16 19C16.5467 19 17 19.4533 17 20V24C17 24.5467 16.5467 25 16 25Z" fill="#C183FF"/>
<path d="M23.4667 30.0799H8.53333C6.10666 30.0799 3.89333 28.2133 3.49333 25.8266L1.71999 15.1999C1.42666 13.5466 2.23999 11.4266 3.55999 10.3733L12.8 2.97326C14.5867 1.53326 17.4 1.54659 19.2 2.98659L28.44 10.3733C29.7467 11.4266 30.5467 13.5466 30.28 15.1999L28.5067 25.8133C28.1067 28.1733 25.84 30.0799 23.4667 30.0799ZM15.9867 3.90659C15.28 3.90659 14.5733 4.11993 14.0533 4.53326L4.81333 11.9466C4.06666 12.5466 3.53333 13.9333 3.69333 14.8799L5.46666 25.4933C5.70666 26.8933 7.10666 28.0799 8.53333 28.0799H23.4667C24.8933 28.0799 26.2933 26.8933 26.5333 25.4799L28.3067 14.8666C28.4533 13.9333 27.92 12.5199 27.1867 11.9333L17.9467 4.54659C17.4133 4.11993 16.6933 3.90659 15.9867 3.90659Z" fill="#C183FF"/>
</svg>
