<svg width="32" height="32" viewBox="0 0 32 32" fill="none" xmlns="http://www.w3.org/2000/svg">
<path d="M16.0133 30.3201C15.1733 30.3201 14.3467 30.0401 13.6933 29.4801L11.5867 27.6801C11.3733 27.4934 10.84 27.3068 10.56 27.3068H8.22667C7.27896 27.3068 6.37007 26.9303 5.69994 26.2602C5.02981 25.59 4.65333 24.6811 4.65333 23.7334V21.4534C4.65333 21.1734 4.46667 20.6401 4.29333 20.4401L2.48 18.3068C1.38667 17.0134 1.38667 14.9868 2.48 13.6801L4.29333 11.5468C4.46667 11.3468 4.65333 10.8134 4.65333 10.5334V8.26676C4.65333 6.29342 6.25333 4.69342 8.22667 4.69342H10.5333C10.8133 4.69342 11.3333 4.49342 11.56 4.30676L13.6667 2.50676C14.9733 1.40009 17.0133 1.40009 18.32 2.50676L20.4267 4.30676C20.64 4.49342 21.1867 4.68009 21.4667 4.68009H23.7333C25.7067 4.68009 27.3067 6.28009 27.3067 8.25342V10.5201C27.3067 10.8001 27.5067 11.3201 27.6933 11.5468L29.4933 13.6534C30.6133 14.9734 30.6 17.0134 29.4933 18.3068L27.6933 20.4134C27.5067 20.6401 27.32 21.1601 27.32 21.4401V23.7068C27.32 25.6801 25.72 27.2801 23.7467 27.2801H21.48C21.2 27.2801 20.68 27.4801 20.44 27.6668L18.3333 29.4668C17.68 30.0401 16.84 30.3201 16.0133 30.3201ZM8.22667 6.69342C7.36 6.69342 6.65333 7.40009 6.65333 8.26676V10.5334C6.65333 11.2934 6.30667 12.2534 5.81333 12.8401L4 14.9734C3.54667 15.5201 3.54667 16.4801 4 17.0134L5.8 19.1334C6.28 19.6801 6.64 20.6801 6.64 21.4401V23.7201C6.64 24.5868 7.34667 25.2934 8.21333 25.2934H10.5333C11.28 25.2934 12.2667 25.6534 12.8533 26.1468L14.9733 27.9601C15.52 28.4268 16.48 28.4268 17.0267 27.9601L19.1333 26.1601C19.7333 25.6534 20.7067 25.3068 21.4533 25.3068H23.72C24.5867 25.3068 25.2933 24.6001 25.2933 23.7334V21.4668C25.2933 20.7201 25.6533 19.7468 26.1467 19.1468L27.96 17.0268C28.4267 16.4801 28.4267 15.5201 27.96 14.9734L26.16 12.8668C25.6533 12.2668 25.3067 11.2934 25.3067 10.5468V8.26676C25.3067 7.40009 24.6 6.69342 23.7333 6.69342H21.4667C20.7067 6.69342 19.72 6.33342 19.1333 5.84009L17.0133 4.02676C16.4667 3.56009 15.52 3.56009 14.96 4.02676L12.8667 5.84009C12.2667 6.33342 11.2933 6.69342 10.5333 6.69342H8.22667Z" fill="#C183FF"/>
<path d="M16 22.4946C15.2667 22.4946 14.6667 21.8946 14.6667 21.1613C14.6667 20.428 15.2533 19.828 16 19.828C16.7333 19.828 17.3333 20.428 17.3333 21.1613C17.3333 21.8946 16.7467 22.4946 16 22.4946ZM16 18.292C15.4533 18.292 15 17.8386 15 17.292V10.8386C15 10.292 15.4533 9.83862 16 9.83862C16.5467 9.83862 17 10.292 17 10.8386V17.2786C17 17.8386 16.56 18.292 16 18.292Z" fill="#C183FF"/>
</svg>
