<svg width="32" height="32" viewBox="0 0 32 32" fill="none" xmlns="http://www.w3.org/2000/svg">
<path d="M20.32 29.6933H20.1467C14.2267 29.6933 11.3733 27.36 10.88 22.1333C10.8267 21.5866 11.2267 21.0933 11.7867 21.04C12.32 20.9866 12.8267 21.4 12.88 21.9466C13.2667 26.1333 15.24 27.6933 20.16 27.6933H20.3333C25.76 27.6933 27.68 25.7733 27.68 20.3466V11.6533C27.68 6.22664 25.76 4.30664 20.3333 4.30664H20.16C15.2133 4.30664 13.24 5.89331 12.88 10.16C12.8133 10.7066 12.3467 11.12 11.7867 11.0666C11.6553 11.0564 11.5272 11.0203 11.4097 10.9604C11.2923 10.9005 11.1879 10.818 11.1024 10.7177C11.0169 10.6173 10.9521 10.5011 10.9117 10.3757C10.8712 10.2502 10.8559 10.118 10.8667 9.98664C11.32 4.67997 14.1867 2.30664 20.1467 2.30664H20.32C26.8667 2.30664 29.6667 5.10664 29.6667 11.6533V20.3466C29.6667 26.8933 26.8667 29.6933 20.32 29.6933Z" fill="#C183FF"/>
<path d="M20 17H4.82667C4.28 17 3.82667 16.5467 3.82667 16C3.82667 15.4533 4.28 15 4.82667 15H20C20.5467 15 21 15.4533 21 16C21 16.5467 20.5467 17 20 17Z" fill="#C183FF"/>
<path d="M7.8 21.4666C7.54666 21.4666 7.29333 21.3733 7.09333 21.1733L2.62666 16.7066C2.44069 16.5184 2.3364 16.2645 2.3364 16C2.3364 15.7354 2.44069 15.4815 2.62666 15.2933L7.09333 10.8266C7.48 10.44 8.12 10.44 8.50666 10.8266C8.89333 11.2133 8.89333 11.8533 8.50666 12.24L4.74666 16L8.50666 19.76C8.89333 20.1466 8.89333 20.7866 8.50666 21.1733C8.32 21.3733 8.05333 21.4666 7.8 21.4666Z" fill="#C183FF"/>
</svg>
