<svg width="32" height="32" viewBox="0 0 32 32" fill="none" xmlns="http://www.w3.org/2000/svg">
<path d="M16 17.0001C11.7733 17.0001 8.33333 13.5601 8.33333 9.33341C8.33333 5.10675 11.7733 1.66675 16 1.66675C20.2267 1.66675 23.6667 5.10675 23.6667 9.33341C23.6667 13.5601 20.2267 17.0001 16 17.0001ZM16 3.66675C14.4982 3.67027 13.0589 4.26842 11.997 5.33037C10.935 6.39231 10.3369 7.8316 10.3333 9.33341C10.3369 10.8352 10.935 12.2745 11.997 13.3365C13.0589 14.3984 14.4982 14.9966 16 15.0001C17.5018 14.9966 18.9411 14.3984 20.0031 13.3365C21.065 12.2745 21.6631 10.8352 21.6667 9.33341C21.6631 7.8316 21.065 6.39231 20.0031 5.33037C18.9411 4.26842 17.5018 3.67027 16 3.66675ZM4.54667 30.3334C4 30.3334 3.54667 29.8801 3.54667 29.3334C3.54667 23.6401 9.13333 19.0001 16 19.0001C17.3467 19.0001 18.6667 19.1734 19.9467 19.5334C20.48 19.6801 20.7867 20.2267 20.64 20.7601C20.4933 21.2934 19.9467 21.6001 19.4133 21.4534C18.32 21.1467 17.1733 21.0001 16 21.0001C10.24 21.0001 5.54667 24.7334 5.54667 29.3334C5.54667 29.8801 5.09333 30.3334 4.54667 30.3334Z" fill="#C183FF"/>
<path d="M24 30.3333C21.7867 30.3333 19.7067 29.16 18.5867 27.2533C17.9867 26.2933 17.6667 25.16 17.6667 24C17.6667 22.0533 18.5333 20.2533 20.04 19.0533C21.16 18.16 22.5733 17.6666 24 17.6666C27.4933 17.6666 30.3333 20.5066 30.3333 24C30.3333 25.16 30.0133 26.2933 29.4133 27.2666C29.08 27.8266 28.6533 28.3333 28.1467 28.76C27.04 29.7733 25.56 30.3333 24 30.3333ZM24 19.6666C23.0133 19.6666 22.08 20 21.2933 20.6266C20.473 21.278 19.9187 22.2064 19.7345 23.2376C19.5504 24.2687 19.7491 25.3316 20.2933 26.2266C21.0667 27.5333 22.4933 28.3333 24 28.3333C25.0533 28.3333 26.0667 27.9466 26.84 27.2533C27.1867 26.96 27.48 26.6133 27.6933 26.24C28.12 25.56 28.3333 24.7866 28.3333 24C28.3333 21.6133 26.3867 19.6666 24 19.6666Z" fill="#C183FF"/>
<path d="M23.2387 26.3214C22.9853 26.3214 22.732 26.228 22.532 26.028L21.212 24.708C21.0263 24.5197 20.9223 24.2658 20.9223 24.0014C20.9223 23.7369 21.0263 23.4831 21.212 23.2947C21.5987 22.908 22.2387 22.908 22.6253 23.2947L23.2653 23.9347L25.3987 21.9614C25.7987 21.588 26.4387 21.6147 26.812 22.0147C27.1853 22.4147 27.1587 23.0547 26.7587 23.428L23.9187 26.0547C23.7187 26.228 23.4787 26.3214 23.2387 26.3214Z" fill="#C183FF"/>
</svg>
